<svg width="11" height="21" viewBox="0 0 11 21" fill="none" xmlns="http://www.w3.org/2000/svg">
<path d="M6.96875 20.5V11.3789H10.0547L10.4844 7.84375H6.96875V5.85156C6.96875 5.5651 6.97526 5.33398 6.98828 5.1582C7.0013 4.98242 7.02734 4.86849 7.06641 4.81641C7.06641 4.79036 7.07943 4.74805 7.10547 4.68945C7.13151 4.63086 7.16406 4.54948 7.20313 4.44531C7.32031 4.25 7.52865 4.10026 7.82813 3.99609C8.1276 3.89193 8.51172 3.83984 8.98047 3.83984H10.6406V0.65625C10.1979 0.604166 9.7487 0.565104 9.29297 0.539062C8.83724 0.513021 8.375 0.5 7.90625 0.5C6.98177 0.5 6.19401 0.669271 5.54297 1.00781C4.89193 1.34635 4.37109 1.84766 3.98047 2.51172C3.74609 2.88932 3.57357 3.29622 3.46289 3.73242C3.35221 4.16862 3.29688 4.63411 3.29688 5.12891V7.84375H0.25V11.3789H3.29688V20.5H6.96875Z" fill="#00000D"/>
</svg>
