<svg width="19" height="19" viewBox="0 0 19 19" fill="none" xmlns="http://www.w3.org/2000/svg">
<path d="M0.597498 16.086C2.49961 16.5289 4.40177 16.5126 6.30388 16.3327V16.3273C10.2653 15.9227 14.2267 14.7419 18.1881 15.6946C18.5571 15.7834 18.9117 15.5025 18.9117 15.123V3.48937C18.9117 3.46592 18.9098 3.44287 18.9071 3.42005C18.8164 3.1801 18.604 2.97129 18.3566 2.91392C14.7403 2.07198 11.124 2.88831 7.50775 3.33693C7.10648 3.39081 6.70522 3.43983 6.30396 3.48084V3.4697C4.40184 3.64961 2.49969 3.66586 0.597572 3.223C0.267522 3.14648 0 3.33574 0 3.66594V15.334C0 15.6638 0.267521 16.0096 0.597498 16.086Z" fill="#0B67B2"/>
<path d="M18.9117 3.43388C18.8239 3.18826 18.6087 2.97243 18.3565 2.91398C16.4403 2.46785 14.524 2.48759 12.6078 2.67129V15.5344C14.524 15.3507 16.4403 15.3309 18.3565 15.7771C18.6087 15.8355 18.8239 15.7384 18.9117 15.5422V3.43388Z" fill="#FF473E"/>
<path d="M6.30383 16.3327C8.40511 16.1339 10.5064 15.7356 12.6077 15.5342V2.67114C10.5064 2.87257 8.40511 3.27087 6.30383 3.46962V16.3327Z" fill="#E8E8E8"/>
</svg>
