<svg width="21" height="21" viewBox="0 0 21 21" fill="none" xmlns="http://www.w3.org/2000/svg">
<path d="M14.293 5.5H16.2656V3.50781H14.293V5.5ZM10.2695 5.5C9.99609 5.5 9.72917 5.52604 9.46875 5.57812C9.20833 5.63021 8.95443 5.70182 8.70703 5.79297C8.44661 5.88411 8.19922 5.98828 7.96484 6.10547C7.73047 6.22266 7.5026 6.35286 7.28125 6.49609H2.26172V5.5C2.26172 5.08333 2.33333 4.69922 2.47656 4.34766C2.61979 3.99609 2.83464 3.67708 3.12109 3.39062C3.40755 3.10417 3.72982 2.88607 4.08789 2.73633C4.44596 2.58659 4.83333 2.51172 5.25 2.51172H15.25C15.6667 2.51172 16.054 2.58659 16.4121 2.73633C16.7702 2.88607 17.099 3.10417 17.3984 3.39062C17.6849 3.67708 17.903 3.99609 18.0527 4.34766C18.2025 4.69922 18.2773 5.08333 18.2773 5.5V6.49609H13.2383C13.0169 6.35286 12.7891 6.22266 12.5547 6.10547C12.3203 5.98828 12.0794 5.88411 11.832 5.79297C11.5977 5.70182 11.3503 5.63021 11.0898 5.57812C10.8294 5.52604 10.556 5.5 10.2695 5.5ZM10.2695 7.53125C10.6862 7.53125 11.0703 7.60286 11.4219 7.74609C11.7734 7.88932 12.0924 8.10417 12.3789 8.39062C12.6784 8.67708 12.903 8.99935 13.0527 9.35742C13.2025 9.7155 13.2773 10.1029 13.2773 10.5195C13.2773 10.9492 13.2025 11.3431 13.0527 11.7012C12.903 12.0592 12.6784 12.3815 12.3789 12.668C12.0924 12.9544 11.7734 13.166 11.4219 13.3027C11.0703 13.4395 10.6862 13.5078 10.2695 13.5078C9.85286 13.5078 9.46224 13.4395 9.09766 13.3027C8.73307 13.166 8.40755 12.9544 8.12109 12.668C7.82161 12.3815 7.60026 12.0592 7.45703 11.7012C7.3138 11.3431 7.24219 10.9492 7.24219 10.5195C7.24219 10.1029 7.3138 9.7155 7.45703 9.35742C7.60026 8.99935 7.82161 8.67708 8.12109 8.39062C8.40755 8.10417 8.73307 7.88932 9.09766 7.74609C9.46224 7.60286 9.85286 7.53125 10.2695 7.53125ZM15.25 18.5273H5.25C4.83333 18.5273 4.44596 18.4525 4.08789 18.3027C3.72982 18.153 3.40755 17.9349 3.12109 17.6484C2.83464 17.349 2.61979 17.0234 2.47656 16.6719C2.33333 16.3203 2.26172 15.9427 2.26172 15.5391V7.53125H6.24609C6.10286 7.7526 5.97266 7.98047 5.85547 8.21484C5.73828 8.44922 5.6276 8.6901 5.52344 8.9375C5.43229 9.1849 5.36393 9.4388 5.31836 9.69922C5.27279 9.95964 5.25 10.2331 5.25 10.5195C5.25 10.8711 5.28581 11.2064 5.35742 11.5254C5.42904 11.8444 5.52995 12.1602 5.66016 12.4727C5.79036 12.7721 5.94336 13.0521 6.11914 13.3125C6.29492 13.5729 6.49349 13.8203 6.71484 14.0547C6.9362 14.276 7.18034 14.4779 7.44727 14.6602C7.71419 14.8424 8.00391 14.9987 8.31641 15.1289C8.64193 15.2721 8.96745 15.3763 9.29297 15.4414C9.61849 15.5065 9.94401 15.5391 10.2695 15.5391C10.6211 15.5391 10.9596 15.5065 11.2852 15.4414C11.6107 15.3763 11.9232 15.2721 12.2227 15.1289C12.5352 14.9987 12.8216 14.8424 13.082 14.6602C13.3424 14.4779 13.5768 14.276 13.7852 14.0547C14.0065 13.8203 14.2051 13.5729 14.3809 13.3125C14.5566 13.0521 14.7096 12.7721 14.8398 12.4727C14.9701 12.1602 15.071 11.8444 15.1426 11.5254C15.2142 11.2064 15.25 10.8711 15.25 10.5195C15.25 10.2331 15.224 9.95964 15.1719 9.69922C15.1198 9.4388 15.0482 9.1849 14.957 8.9375C14.8659 8.6901 14.765 8.44922 14.6543 8.21484C14.5436 7.98047 14.4232 7.7526 14.293 7.53125H18.2773V15.5391C18.2773 15.9427 18.2025 16.3203 18.0527 16.6719C17.903 17.0234 17.6849 17.349 17.3984 17.6484C17.099 17.9349 16.7702 18.153 16.4121 18.3027C16.054 18.4525 15.6667 18.5273 15.25 18.5273ZM20.25 4.48438C20.25 3.92448 20.1556 3.41016 19.9668 2.94141C19.778 2.47266 19.4883 2.04297 19.0977 1.65234C18.7201 1.27474 18.2936 0.988281 17.8184 0.792969C17.3431 0.597656 16.8255 0.5 16.2656 0.5H4.23438C3.67448 0.5 3.16016 0.597656 2.69141 0.792969C2.22266 0.988281 1.79297 1.27474 1.40234 1.65234C1.02474 2.04297 0.738281 2.47266 0.542969 2.94141C0.347656 3.41016 0.25 3.92448 0.25 4.48438V16.5156C0.25 17.0755 0.347656 17.5931 0.542969 18.0684C0.738281 18.5436 1.02474 18.9701 1.40234 19.3477C1.79297 19.7383 2.22266 20.028 2.69141 20.2168C3.16016 20.4056 3.67448 20.5 4.23438 20.5H16.2656C16.8255 20.5 17.3431 20.4056 17.8184 20.2168C18.2936 20.028 18.7201 19.7383 19.0977 19.3477C19.4883 18.9701 19.778 18.5436 19.9668 18.0684C20.1556 17.5931 20.25 17.0755 20.25 16.5156V4.48438Z" fill="#00000D"/>
</svg>
