<svg width="22" height="21" viewBox="0 0 22 21" fill="none" xmlns="http://www.w3.org/2000/svg">
<path d="M12.375 8.97656C12.375 8.95052 12.3783 8.93425 12.3848 8.92773C12.3913 8.92122 12.4076 8.91797 12.4336 8.91797V8.97656H12.375ZM5.32422 6.98438H0.753906V20.5H5.32422V6.98438ZM3.03906 5.10938C3.42969 5.10938 3.78125 5.05404 4.09375 4.94336C4.40625 4.83268 4.6862 4.66667 4.93359 4.44531C5.18099 4.22396 5.36654 3.97656 5.49023 3.70312C5.61393 3.42969 5.67578 3.13021 5.67578 2.80469C5.64974 2.46615 5.57161 2.1569 5.44141 1.87695C5.3112 1.59701 5.12891 1.35287 4.89453 1.14453C4.66016 0.923178 4.39648 0.760416 4.10352 0.65625C3.81055 0.552084 3.48177 0.5 3.11719 0.5C2.72656 0.5 2.375 0.552084 2.0625 0.65625C1.75 0.760416 1.47005 0.923178 1.22266 1.14453C0.988281 1.35287 0.809245 1.59701 0.685547 1.87695C0.561849 2.1569 0.5 2.46615 0.5 2.80469C0.5 3.13021 0.555339 3.42969 0.666016 3.70312C0.776693 3.97656 0.949219 4.22396 1.18359 4.44531C1.40495 4.66667 1.67188 4.83268 1.98438 4.94336C2.29688 5.05404 2.64844 5.10938 3.03906 5.10938ZM21.75 12.7852C21.75 11.7174 21.6263 10.7995 21.3789 10.0312C21.1315 9.26302 20.7669 8.63151 20.2852 8.13672C19.7904 7.64193 19.2305 7.27409 18.6055 7.0332C17.9805 6.79232 17.2904 6.67188 16.5352 6.67188C15.9102 6.67188 15.3698 6.73372 14.9141 6.85742C14.4583 6.98112 14.0807 7.17318 13.7812 7.43359C13.4948 7.69401 13.2376 7.94466 13.0098 8.18555C12.7819 8.42643 12.5898 8.67057 12.4336 8.91797V6.98438H7.88281V20.5H12.4336V12.9414C12.4336 12.8503 12.4336 12.7559 12.4336 12.6582C12.4336 12.5605 12.4336 12.4596 12.4336 12.3555C12.4336 12.2643 12.4434 12.1764 12.4629 12.0918C12.4824 12.0072 12.5052 11.9258 12.5312 11.8477C12.6354 11.6393 12.7559 11.4408 12.8926 11.252C13.0293 11.0632 13.1953 10.8841 13.3906 10.7148C13.5729 10.5456 13.791 10.4154 14.0449 10.3242C14.2988 10.2331 14.5951 10.1875 14.9336 10.1875C15.3372 10.1875 15.6823 10.2624 15.9688 10.4121C16.2552 10.5618 16.4831 10.7799 16.6523 11.0664C16.8346 11.3529 16.9681 11.6849 17.0527 12.0625C17.1374 12.4401 17.1797 12.8503 17.1797 13.293V20.5H21.75V12.7852Z" fill="#00000D"/>
</svg>
