<svg width="283" height="498" viewBox="0 0 283 498" fill="none" xmlns="http://www.w3.org/2000/svg">
<g clip-path="url(#clip0_223_236)">
<path d="M169.809 160.416C234.541 100.834 335.318 105.01 394.899 169.742C454.48 234.475 450.302 335.249 385.57 394.83C320.837 454.411 220.064 450.233 160.482 385.501L133.074 410.728C206.571 490.58 330.88 495.73 410.731 422.233C490.582 348.736 495.733 224.427 422.236 144.576C348.739 64.7243 224.43 59.5735 144.579 133.071L169.773 160.443C169.773 160.443 169.795 160.423 169.809 160.41L169.809 160.416Z" fill="black"/>
<path d="M194.967 187.816L169.776 160.446C105.077 220.032 100.913 320.782 160.485 385.503L187.821 360.342C142.153 310.726 145.356 233.484 194.97 187.819L194.967 187.816Z" fill="black"/>
<path d="M220.195 215.158C254.692 183.406 308.399 185.631 340.151 220.129C371.904 254.626 369.678 308.333 335.181 340.085C300.684 371.837 246.977 369.612 215.225 335.114L187.816 360.342C233.484 409.958 310.726 413.156 360.339 367.49C409.953 321.825 413.154 244.581 367.488 194.967C321.823 145.354 244.578 142.153 194.965 187.818L220.159 215.191C220.159 215.191 220.181 215.171 220.195 215.158Z" fill="black"/>
<path d="M245.356 242.561L220.162 215.188C185.699 246.945 183.483 300.628 215.225 335.114L242.561 309.953C224.722 290.572 225.973 260.397 245.354 242.558L245.356 242.561Z" fill="black"/>
<path d="M242.561 309.953C260.4 329.334 290.575 330.584 309.956 312.746C329.337 294.907 330.587 264.732 312.748 245.351C294.91 225.97 264.735 224.72 245.354 242.558L277.655 277.652L242.561 309.953Z" fill="black"/>
</g>
<defs>
<clipPath id="clip0_223_236">
<rect width="393" height="393" fill="white" transform="translate(266.15 555.309) rotate(-132.627)"/>
</clipPath>
</defs>
</svg>
