<svg width="29" height="21" viewBox="0 0 29 21" fill="none" xmlns="http://www.w3.org/2000/svg">
<path d="M14.8555 20.5C15.5586 20.5 16.3659 20.4967 17.2773 20.4902C18.1888 20.4837 19.2044 20.474 20.3242 20.4609C21.7956 20.3958 22.9544 20.3405 23.8008 20.2949C24.6471 20.2493 25.181 20.2005 25.4023 20.1484C25.7409 20.0964 26.0566 20.0085 26.3496 19.8848C26.6426 19.7611 26.8997 19.6081 27.1211 19.4258C27.3945 19.2044 27.6289 18.9505 27.8242 18.6641C28.0195 18.3776 28.1758 18.0651 28.293 17.7266C28.5143 17.1536 28.6836 16.3626 28.8008 15.3535C28.918 14.3444 28.9766 13.1172 28.9766 11.6719V9.34766C28.9766 8.67057 28.9538 7.95117 28.9082 7.18945C28.8626 6.42773 28.8008 5.6237 28.7227 4.77734C28.5924 4.1263 28.4362 3.56966 28.2539 3.10742C28.0716 2.64518 27.8568 2.27083 27.6094 1.98438C27.4661 1.85417 27.349 1.75326 27.2578 1.68164C27.1667 1.61003 27.1016 1.57422 27.0625 1.57422C26.8411 1.39193 26.597 1.24544 26.3301 1.13477C26.0632 1.02409 25.7799 0.949219 25.4805 0.910156C25.1419 0.845053 24.6667 0.786459 24.0547 0.734375C23.4297 0.682291 22.6712 0.639975 21.7793 0.607422C20.8874 0.574869 19.8555 0.545572 18.6836 0.519531C17.4987 0.50651 16.1836 0.5 14.7383 0.5C13.9701 0.5 13.153 0.503256 12.2871 0.509766C11.4212 0.516275 10.4935 0.532553 9.50391 0.558594C7.8763 0.610678 6.59375 0.666016 5.65625 0.724609C4.71875 0.783203 4.1263 0.845053 3.87891 0.910156C3.44922 0.988281 3.05208 1.13477 2.6875 1.34961C2.32292 1.56445 1.98438 1.84766 1.67188 2.19922C1.51562 2.42057 1.35612 2.74609 1.19336 3.17578C1.0306 3.60547 0.871094 4.13932 0.714844 4.77734C0.636719 5.6237 0.58138 6.42773 0.548828 7.18945C0.516276 7.95117 0.5 8.67057 0.5 9.34766C0.5 10.4414 0.509766 11.4212 0.529297 12.2871C0.548828 13.153 0.578125 13.8984 0.617188 14.5234C0.65625 15.1094 0.705078 15.5944 0.763672 15.9785C0.822266 16.3626 0.890625 16.6523 0.96875 16.8477C1.03385 17.1602 1.10221 17.4336 1.17383 17.668C1.24544 17.9023 1.3138 18.1042 1.37891 18.2734C1.60026 18.6771 1.89648 19.0254 2.26758 19.3184C2.63867 19.6113 3.07812 19.849 3.58594 20.0312L4.73828 20.168C4.88151 20.207 5.17122 20.2461 5.60742 20.2852C6.04362 20.3242 6.63281 20.3568 7.375 20.3828C8.23438 20.4089 9.02865 20.4284 9.75781 20.4414C10.5 20.4544 11.1836 20.4642 11.8086 20.4707C12.4336 20.4772 13 20.487 13.5078 20.5C14.0156 20.5 14.4648 20.5 14.8555 20.5ZM11.7891 14.1914V6.18359C11.8151 6.19661 11.9648 6.27474 12.2383 6.41797C12.5117 6.5612 12.9121 6.76953 13.4395 7.04297C13.9668 7.31641 14.6146 7.65495 15.3828 8.05859C16.151 8.46224 17.0495 8.93099 18.0781 9.46484C18.5339 9.71224 18.8757 9.89779 19.1035 10.0215C19.3314 10.1452 19.4453 10.2135 19.4453 10.2266L11.7891 14.1914Z" fill="#00000D"/>
</svg>
