<svg width="125" height="124" viewBox="0 0 125 124" fill="none" xmlns="http://www.w3.org/2000/svg">
<g clip-path="url(#clip0_249_279)">
<path d="M124.053 0.116699H0.427368V123.883H124.053V0.116699Z" fill="#00008F"/>
<path d="M77.0265 61.2344L124.053 0.116699H117.097L69.9409 61.2344H77.0265Z" fill="#FF1721"/>
<path d="M94.8897 88.5081C97.034 94.5377 101.491 110.256 103.243 111.507H91.5893C91.552 110.125 91.3656 108.744 91.0486 107.381C90.5451 105.589 86.331 91.9989 86.331 91.9989H67.8152L64.9064 96.1244C64.9064 96.1244 68.4119 107.082 68.617 107.624C68.9899 108.594 70.6681 111.488 70.6681 111.488H59.499C59.499 111.488 59.2006 109.808 59.1074 109.117C59.0142 108.557 58.0446 105.477 58.0446 105.477C58.0446 105.477 55.5086 108.258 54.8187 109.546C54.1288 110.835 53.8118 111.507 53.8118 111.507H45.0667C45.0667 111.507 44.7684 109.826 44.6751 109.136C44.5819 108.576 43.5191 105.253 43.5191 105.253C43.5191 105.253 41.0764 108.221 40.3678 109.509C39.6779 110.797 39.3796 111.507 39.3796 111.507H30.7277C30.7277 111.507 33.1703 109.173 34.0281 108.184C35.4638 106.485 40.834 99.466 40.834 99.466L38.671 91.9989H20.3044C20.3044 91.9989 9.82512 105.776 9.4149 106.205C9.00468 106.634 5.94669 111.021 5.8721 111.488H0.427368V108.016C0.501954 107.941 0.557895 107.866 0.651126 107.81C0.818943 107.68 8.59446 98.0285 15.736 88.4894C22.1504 80.1823 28.1731 72.0993 28.7139 71.3339C30.0005 69.4671 31.8464 65.4536 31.8464 65.4536H41.3561C41.3561 65.4536 41.6544 69.1498 41.9341 70.0458C42.1765 70.8299 47.9755 89.8521 48.1061 90.0575L51.3132 85.9506L45.8498 69.0938C45.8498 69.0938 44.5632 65.9203 44.153 65.4536H55.2476C55.2103 66.4803 55.3222 67.4884 55.6019 68.4778C56.0494 69.8778 58.4361 78.4649 58.4361 78.4649C58.4361 78.4649 66.0065 68.9631 66.454 68.2911C66.9948 67.4324 67.3118 66.4617 67.3864 65.4723H76.6349C76.6349 65.4723 74.9381 66.7043 71.9734 70.4752L61.1585 84.1585C61.1585 84.1585 62.0162 87.0707 62.4264 88.5081C62.5383 88.9188 62.6129 89.1988 62.6129 89.2361C62.6129 89.2735 62.8367 88.9748 63.1909 88.5081C65.7082 85.3159 77.1757 70.2699 77.8656 68.9818C78.425 67.9364 79.2454 66.7603 79.7302 65.4723H88.7551C88.7551 65.4723 88.9602 68.1604 89.2399 68.9071L94.8897 88.5081ZM81.166 74.2647C79.8421 77.1209 72.0479 86.6227 72.0479 86.6227H84.3918C84.3918 86.6227 82.0051 79.249 81.5762 77.5875C81.3711 76.5235 81.2779 75.4408 81.3338 74.3581C81.3338 74.2087 81.2965 73.9474 81.166 74.2647ZM33.7297 74.2647C32.4058 77.1209 24.6117 86.6227 24.6117 86.6227H36.9555C36.9555 86.6227 34.5688 79.249 34.1399 77.5875C33.9348 76.5235 33.8416 75.4408 33.8975 74.3581C33.8975 74.2087 33.8602 73.9474 33.7297 74.2647ZM52.3015 103.069L55.6951 98.4019C55.3781 98.0659 53.4575 92.2603 53.4575 92.2603L50.1758 96.5351L52.3015 103.069Z" fill="white"/>
</g>
<defs>
<clipPath id="clip0_249_279">
<rect width="124" height="124" fill="white" transform="translate(0.23999)"/>
</clipPath>
</defs>
</svg>
