<?xml version="1.0" encoding="UTF-8"?><svg id="Calque_1" xmlns="http://www.w3.org/2000/svg" viewBox="0 0 1047.51 1047.51"><path d="M948.35,523.88c0,234.5-190.1,424.6-424.6,424.6S99.16,758.38,99.16,523.88,289.26,99.29,523.76,99.29V0C234.49,0,0,234.49,0,523.76s234.49,523.76,523.76,523.76,523.76-234.49,523.76-523.76h-99.16s0,.08,0,.13Z"/><path d="M849.2,523.76h99.15c-.07-234.44-190.14-424.47-424.6-424.47v99.03c179.74,0,325.44,145.71,325.44,325.44Z"/><path d="M750.04,523.88c0,124.97-101.31,226.28-226.28,226.28s-226.28-101.31-226.28-226.28,101.31-226.28,226.28-226.28v-99.29c-179.74,0-325.44,145.71-325.44,325.44s145.71,325.44,325.44,325.44,325.44-145.71,325.44-325.44h-99.16s0,.08,0,.13Z"/><path d="M650.88,523.76h99.16c-.07-124.91-101.35-226.16-226.28-226.16v99.03c70.21,0,127.13,56.92,127.13,127.13Z"/><path d="M523.76,396.63c-70.21,0-127.13,56.92-127.13,127.13s56.92,127.13,127.13,127.13,127.13-56.92,127.13-127.13h-127.13v-127.13Z"/></svg>