<?xml version="1.0" encoding="UTF-8"?><svg id="Calque_1" xmlns="http://www.w3.org/2000/svg" viewBox="0 0 1014.1 368.46"><defs><style>.cls-1{fill:#fff;}</style></defs><g><polygon class="cls-1" points="0 205.07 46.95 205.07 46.95 131.62 139.98 131.62 139.98 94.18 46.95 94.18 46.95 40.9 152.36 40.9 152.36 3.46 0 3.46 0 205.07"/><path class="cls-1" d="M389.98,104.26c0-15.16-2.74-29.09-8.21-41.76-5.47-12.67-13.2-23.71-23.19-33.12-9.99-9.41-21.65-16.66-34.99-21.74-13.35-5.09-27.99-7.63-43.92-7.63s-30.58,2.59-43.92,7.78c-13.35,5.18-25.01,12.48-34.99,21.89-9.99,9.41-17.71,20.4-23.19,32.98-5.47,12.58-8.21,26.45-8.21,41.62s2.74,28.8,8.21,41.48c5.47,12.67,13.2,23.72,23.19,33.12,9.98,9.41,21.7,16.71,35.14,21.89,13.44,5.18,28.13,7.78,44.07,7.78s30.29-2.55,43.63-7.63c13.34-5.08,25.01-12.33,34.99-21.74,9.98-9.41,17.71-20.49,23.19-33.27,5.47-12.77,8.21-26.64,8.21-41.62Zm-51.99,26.07c-3.17,7.78-7.63,14.59-13.39,20.45-5.76,5.86-12.43,10.37-20.02,13.54-7.59,3.17-15.89,4.75-24.91,4.75s-17.38-1.58-25.06-4.75c-7.68-3.17-14.36-7.68-20.02-13.54-5.67-5.86-10.08-12.67-13.25-20.45-3.17-7.78-4.75-16.46-4.75-26.07s1.58-18.29,4.75-26.07c3.17-7.78,7.58-14.59,13.25-20.45,5.66-5.85,12.33-10.37,20.02-13.54,7.68-3.17,16.03-4.75,25.06-4.75s17.33,1.58,24.91,4.75c7.58,3.17,14.26,7.68,20.02,13.54,5.76,5.86,10.22,12.67,13.39,20.45,3.17,7.78,4.75,16.47,4.75,26.07s-1.58,18.29-4.75,26.07Z"/><polygon class="cls-1" points="498.25 125.93 563.07 205.07 617.79 205.07 529.28 93.43 612.61 3.46 560.77 3.46 471.48 97.54 471.48 3.46 425.11 3.46 425.11 205.07 471.48 205.07 471.48 153.87 498.25 125.93"/><path class="cls-1" d="M770.15,114.92c0,19.01-3.94,32.79-11.81,41.33-7.88,8.55-18.92,12.82-33.12,12.82s-24.96-4.27-32.84-12.82c-7.87-8.54-11.81-22.32-11.81-41.33V3.46h-46.95V116.07c0,29.76,8.07,52.61,24.19,68.55,16.13,15.94,38.5,23.91,67.11,23.91s50.69-7.97,66.82-23.91c16.13-15.94,24.19-38.78,24.19-68.55V3.46h-45.79V114.92Z"/><path class="cls-1" d="M1007.62,119.96c-4.32-7.01-9.94-12.57-16.85-16.71-6.91-4.13-14.5-7.53-22.75-10.22-8.26-2.69-16.61-4.94-25.06-6.77-8.45-1.82-16.13-3.64-23.04-5.47-6.91-1.82-12.48-4.36-16.71-7.63-4.23-3.26-6.34-7.58-6.34-12.96,0-4.22,1.3-8.07,3.89-11.52,2.59-3.46,6.67-6.19,12.24-8.21,5.57-2.02,12.96-3.02,22.18-3.02s18.05,1.3,27.65,3.89c9.6,2.59,18.91,6.48,27.94,11.66l14.69-35.14c-9.22-5.76-20.02-10.18-32.4-13.25-12.38-3.07-24.91-4.61-37.59-4.61-19.01,0-34.81,2.84-47.38,8.5-12.58,5.66-21.94,13.25-28.08,22.75-6.15,9.51-9.22,20.02-9.22,31.54,0,10.56,2.06,19.35,6.19,26.35,4.13,7.01,9.69,12.67,16.7,16.99,7.01,4.32,14.69,7.78,23.04,10.37,8.35,2.59,16.66,4.8,24.91,6.62,8.25,1.83,15.89,3.74,22.9,5.76,7.01,2.02,12.62,4.61,16.85,7.78,4.22,3.17,6.34,7.44,6.34,12.82,0,4.23-1.35,7.92-4.03,11.09-2.69,3.17-6.87,5.71-12.53,7.63-5.66,1.92-13.1,2.88-22.32,2.88-12.1,0-24.1-1.97-36-5.9-11.91-3.93-22.08-8.97-30.53-15.12l-15.84,35.14c9.02,6.91,20.98,12.53,35.86,16.85,14.88,4.32,30.38,6.48,46.51,6.48,19.01,0,34.85-2.88,47.52-8.64,12.67-5.76,22.13-13.34,28.37-22.75,6.24-9.41,9.36-19.77,9.36-31.11,0-10.37-2.16-19.05-6.48-26.07Z"/></g><g><path class="cls-1" d="M133.25,327.4c-3.26-1.67-6.82-3.03-10.67-4.08-3.85-1.05-7.74-2.03-11.68-2.95-3.94-.92-7.53-2.05-10.8-3.39-3.26-1.34-5.88-3.14-7.85-5.4-1.97-2.26-2.95-5.27-2.95-9.04,0-3.26,.88-6.21,2.64-8.85,1.76-2.64,4.48-4.75,8.16-6.34,3.68-1.59,8.33-2.39,13.94-2.39,3.93,0,8.01,.61,12.24,1.82,4.23,1.21,8.18,3.08,11.87,5.59l2.39-5.15c-3.35-2.43-7.39-4.35-12.12-5.78-4.73-1.42-9.52-2.13-14.38-2.13-7.2,0-13.1,1.09-17.7,3.26-4.6,2.18-8,5.02-10.17,8.54-2.18,3.52-3.27,7.37-3.27,11.55,0,4.6,.98,8.35,2.95,11.24,1.97,2.89,4.58,5.17,7.85,6.84,3.26,1.68,6.86,3.04,10.8,4.08,3.93,1.05,7.83,2.03,11.68,2.95,3.85,.92,7.41,2.05,10.67,3.39,3.26,1.34,5.9,3.14,7.91,5.4,2.01,2.26,3.01,5.27,3.01,9.04,0,3.18-.9,6.07-2.7,8.66-1.8,2.59-4.56,4.67-8.29,6.21-3.73,1.55-8.52,2.32-14.38,2.32s-11.41-1.07-16.64-3.2c-5.23-2.13-9.35-4.75-12.37-7.85l-2.89,4.77c3.18,3.52,7.68,6.38,13.5,8.6,5.82,2.22,11.99,3.33,18.52,3.33,7.28,0,13.25-1.07,17.89-3.2,4.65-2.13,8.1-4.98,10.36-8.54,2.26-3.56,3.39-7.39,3.39-11.49,0-4.52-1-8.2-3.01-11.05-2.01-2.84-4.65-5.11-7.91-6.78Z"/><polygon class="cls-1" points="225.16 285.71 256.81 285.71 256.81 367.83 263.21 367.83 263.21 285.71 294.85 285.71 294.85 279.94 225.16 279.94 225.16 285.71"/><path class="cls-1" d="M447.53,330.29c0,10.97-2.51,19.08-7.53,24.36-5.02,5.27-12.1,7.91-21.22,7.91s-16.32-2.64-21.35-7.91c-5.02-5.27-7.53-13.39-7.53-24.36v-50.35h-6.4v50.6c0,12.56,3.14,22.02,9.42,28.38,6.28,6.36,14.86,9.54,25.74,9.54s19.59-3.18,25.87-9.54c6.28-6.36,9.42-15.82,9.42-28.38v-50.6h-6.4v50.35Z"/><path class="cls-1" d="M618.42,285.59c-7.03-3.77-15.19-5.65-24.48-5.65h-34.78v87.89h34.78c9.29,0,17.45-1.88,24.48-5.65,7.03-3.77,12.49-8.96,16.38-15.57,3.89-6.61,5.84-14.19,5.84-22.73s-1.95-16.11-5.84-22.73c-3.89-6.61-9.35-11.8-16.38-15.57Zm10.8,58.07c-3.35,5.73-8.08,10.23-14.19,13.5-6.11,3.26-13.31,4.9-21.6,4.9h-27.88v-76.34h27.88c8.29,0,15.48,1.63,21.6,4.9,6.11,3.26,10.84,7.77,14.19,13.5,3.35,5.73,5.02,12.33,5.02,19.78s-1.67,14.04-5.02,19.78Z"/><rect class="cls-1" x="738.21" y="279.94" width="6.4" height="87.89"/><path class="cls-1" d="M920.52,291.99c-4.1-4.02-8.94-7.14-14.5-9.35-5.57-2.22-11.61-3.33-18.14-3.33s-12.58,1.11-18.14,3.33c-5.57,2.22-10.42,5.36-14.57,9.42-4.14,4.06-7.34,8.79-9.61,14.19-2.26,5.4-3.39,11.28-3.39,17.64s1.13,12.24,3.39,17.64c2.26,5.4,5.46,10.13,9.61,14.19,4.14,4.06,9,7.2,14.57,9.42,5.57,2.22,11.61,3.33,18.14,3.33s12.58-1.11,18.14-3.33c5.57-2.22,10.4-5.34,14.5-9.35,4.1-4.02,7.3-8.73,9.61-14.13,2.3-5.4,3.45-11.32,3.45-17.77s-1.15-12.37-3.45-17.77c-2.3-5.4-5.5-10.11-9.61-14.13Zm3.58,47.21c-1.97,4.69-4.71,8.79-8.22,12.3s-7.66,6.24-12.43,8.16c-4.77,1.93-9.96,2.89-15.57,2.89s-10.8-.96-15.57-2.89c-4.77-1.92-8.94-4.65-12.49-8.16-3.56-3.52-6.32-7.62-8.29-12.3-1.97-4.69-2.95-9.79-2.95-15.32s.98-10.74,2.95-15.38c1.97-4.65,4.73-8.73,8.29-12.24,3.56-3.52,7.72-6.24,12.49-8.16,4.77-1.92,9.96-2.89,15.57-2.89s10.8,.96,15.57,2.89c4.77,1.93,8.91,4.65,12.43,8.16,3.52,3.52,6.26,7.6,8.22,12.24s2.95,9.77,2.95,15.38-.98,10.63-2.95,15.32Z"/></g></svg>