<?xml version="1.0" encoding="UTF-8"?><svg id="Calque_1" xmlns="http://www.w3.org/2000/svg" viewBox="0 0 803.84 1131.9"><defs><style>.cls-1{fill:#fff;}</style></defs><g><path class="cls-1" d="M727.74,402.02c0,179.95-145.88,325.83-325.83,325.83S76.09,581.96,76.09,402.02,221.97,76.19,401.92,76.19V0C179.94,0,0,179.94,0,401.92s179.94,401.92,401.92,401.92,401.92-179.94,401.92-401.92h-76.09s0,.06,0,.1Z"/><path class="cls-1" d="M651.65,401.92h76.09c-.05-179.9-145.91-325.73-325.82-325.73v75.99c137.93,0,249.74,111.81,249.74,249.74Z"/><path class="cls-1" d="M575.56,402.02c0,95.9-77.74,173.64-173.65,173.64s-173.65-77.74-173.65-173.64,77.74-173.65,173.65-173.65v-76.19c-137.93,0-249.74,111.81-249.74,249.74s111.81,249.74,249.74,249.74,249.74-111.81,249.74-249.74h-76.09s0,.06,0,.1Z"/><path class="cls-1" d="M499.47,401.92h76.09c-.05-95.86-77.77-173.55-173.64-173.55v75.99c53.88,0,97.55,43.68,97.55,97.55Z"/><path class="cls-1" d="M401.92,304.36c-53.88,0-97.55,43.68-97.55,97.55s43.68,97.55,97.55,97.55,97.55-43.68,97.55-97.55h-97.55v-97.55Z"/></g><g><g><polygon class="cls-1" points="64.99 1023.3 96.19 1023.3 96.19 974.48 158.03 974.48 158.03 949.59 96.19 949.59 96.19 914.17 166.26 914.17 166.26 889.28 64.99 889.28 64.99 1023.3"/><path class="cls-1" d="M324.21,956.29c0-10.08-1.82-19.34-5.46-27.76-3.64-8.42-8.78-15.76-15.41-22.02-6.64-6.25-14.39-11.07-23.26-14.45-8.87-3.38-18.6-5.07-29.2-5.07s-20.33,1.72-29.2,5.17c-8.87,3.45-16.63,8.3-23.26,14.55-6.64,6.25-11.77,13.56-15.41,21.92-3.64,8.36-5.46,17.58-5.46,27.66s1.82,19.15,5.46,27.57,8.77,15.76,15.41,22.02c6.63,6.25,14.42,11.1,23.36,14.55,8.93,3.45,18.7,5.17,29.29,5.17s20.13-1.69,29-5.07c8.87-3.38,16.62-8.2,23.26-14.45,6.63-6.25,11.77-13.62,15.41-22.11,3.64-8.49,5.46-17.71,5.46-27.67Zm-34.56,17.33c-2.11,5.17-5.07,9.7-8.9,13.59-3.83,3.89-8.27,6.89-13.31,9-5.04,2.11-10.56,3.16-16.56,3.16s-11.55-1.05-16.66-3.16c-5.11-2.11-9.54-5.1-13.31-9-3.77-3.89-6.7-8.42-8.81-13.59-2.11-5.17-3.16-10.94-3.16-17.33s1.05-12.16,3.16-17.33c2.11-5.17,5.04-9.7,8.81-13.59,3.76-3.89,8.2-6.89,13.31-9,5.1-2.11,10.66-3.16,16.66-3.16s11.52,1.05,16.56,3.16c5.04,2.11,9.48,5.11,13.31,9,3.83,3.9,6.8,8.42,8.9,13.59,2.11,5.17,3.16,10.95,3.16,17.33s-1.05,12.16-3.16,17.33Z"/><polygon class="cls-1" points="396.18 970.69 439.27 1023.3 475.64 1023.3 416.81 949.09 472.2 889.28 437.74 889.28 378.39 951.82 378.39 889.28 347.57 889.28 347.57 1023.3 378.39 1023.3 378.39 989.27 396.18 970.69"/><path class="cls-1" d="M576.92,963.37c0,12.64-2.62,21.8-7.85,27.47-5.24,5.68-12.57,8.52-22.02,8.52s-16.59-2.84-21.83-8.52c-5.23-5.68-7.85-14.84-7.85-27.47v-74.09h-31.21v74.86c0,19.79,5.36,34.97,16.08,45.57,10.72,10.6,25.59,15.89,44.61,15.89s33.7-5.29,44.42-15.89c10.72-10.59,16.08-25.78,16.08-45.57v-74.86h-30.44v74.09Z"/><path class="cls-1" d="M734.77,966.72c-2.87-4.66-6.6-8.36-11.2-11.1-4.59-2.74-9.64-5.01-15.12-6.8-5.49-1.79-11.04-3.29-16.66-4.5-5.62-1.21-10.72-2.42-15.32-3.64-4.6-1.21-8.3-2.9-11.1-5.07-2.81-2.17-4.21-5.04-4.21-8.62,0-2.81,.86-5.36,2.58-7.66,1.72-2.3,4.43-4.12,8.14-5.46,3.7-1.34,8.62-2.01,14.74-2.01s12,.86,18.38,2.58c6.38,1.72,12.57,4.31,18.57,7.75l9.76-23.36c-6.13-3.83-13.31-6.76-21.54-8.81-8.23-2.04-16.56-3.06-24.98-3.06-12.64,0-23.14,1.88-31.49,5.65-8.36,3.77-14.58,8.81-18.67,15.12-4.09,6.32-6.13,13.31-6.13,20.96,0,7.02,1.37,12.86,4.12,17.52,2.74,4.66,6.44,8.42,11.1,11.3,4.66,2.87,9.76,5.17,15.32,6.89,5.55,1.72,11.07,3.19,16.56,4.4,5.49,1.21,10.56,2.49,15.22,3.83,4.66,1.34,8.39,3.06,11.2,5.17,2.81,2.11,4.21,4.95,4.21,8.52,0,2.81-.89,5.27-2.68,7.37-1.79,2.11-4.56,3.8-8.33,5.07-3.77,1.28-8.71,1.92-14.84,1.92-8.04,0-16.02-1.31-23.93-3.92-7.92-2.61-14.68-5.96-20.29-10.05l-10.53,23.36c6,4.59,13.94,8.33,23.84,11.2,9.89,2.87,20.2,4.31,30.92,4.31,12.64,0,23.17-1.92,31.59-5.74s14.71-8.87,18.86-15.12c4.15-6.25,6.22-13.14,6.22-20.68,0-6.89-1.44-12.67-4.31-17.33Z"/></g><g><path class="cls-1" d="M153.56,1104.61c-2.17-1.11-4.54-2.02-7.09-2.71-2.56-.7-5.15-1.35-7.76-1.96-2.62-.61-5.01-1.36-7.18-2.25-2.17-.89-3.91-2.09-5.22-3.59-1.31-1.5-1.96-3.51-1.96-6.01,0-2.17,.58-4.13,1.75-5.88,1.17-1.75,2.98-3.16,5.43-4.21,2.45-1.06,5.54-1.59,9.26-1.59,2.61,0,5.33,.4,8.14,1.21,2.81,.81,5.44,2.04,7.89,3.71l1.59-3.42c-2.23-1.61-4.91-2.89-8.05-3.84-3.14-.95-6.33-1.42-9.56-1.42-4.79,0-8.71,.72-11.77,2.17-3.06,1.45-5.31,3.34-6.76,5.68-1.45,2.34-2.17,4.9-2.17,7.68,0,3.06,.65,5.55,1.96,7.47,1.31,1.92,3.05,3.44,5.22,4.55,2.17,1.11,4.56,2.02,7.18,2.71,2.61,.7,5.2,1.35,7.76,1.96,2.56,.61,4.92,1.36,7.09,2.25,2.17,.89,3.92,2.09,5.26,3.59,1.33,1.5,2,3.5,2,6.01,0,2.12-.6,4.04-1.79,5.76-1.2,1.72-3.03,3.1-5.51,4.13-2.48,1.03-5.66,1.54-9.56,1.54s-7.58-.71-11.06-2.13c-3.48-1.42-6.22-3.16-8.22-5.22l-1.92,3.17c2.11,2.34,5.1,4.24,8.97,5.72,3.87,1.48,7.97,2.21,12.31,2.21,4.84,0,8.81-.71,11.89-2.13,3.09-1.42,5.38-3.31,6.89-5.68,1.5-2.36,2.25-4.91,2.25-7.64,0-3-.67-5.45-2-7.34-1.34-1.89-3.09-3.39-5.26-4.51Z"/><polygon class="cls-1" points="214.66 1076.9 235.69 1076.9 235.69 1131.49 239.95 1131.49 239.95 1076.9 260.98 1076.9 260.98 1073.06 214.66 1073.06 214.66 1076.9"/><path class="cls-1" d="M362.47,1106.53c0,7.29-1.67,12.69-5.01,16.19s-8.04,5.26-14.11,5.26-10.85-1.75-14.19-5.26c-3.34-3.51-5.01-8.9-5.01-16.19v-33.47h-4.26v33.63c0,8.35,2.09,14.63,6.26,18.86,4.17,4.23,9.88,6.34,17.11,6.34s13.02-2.11,17.19-6.34c4.17-4.23,6.26-10.52,6.26-18.86v-33.63h-4.26v33.47Z"/><path class="cls-1" d="M476.06,1076.82c-4.67-2.5-10.1-3.76-16.28-3.76h-23.12v58.42h23.12c6.18,0,11.6-1.25,16.28-3.76s8.3-5.95,10.89-10.35c2.59-4.39,3.88-9.43,3.88-15.11s-1.29-10.71-3.88-15.11c-2.59-4.39-6.22-7.84-10.89-10.35Zm7.18,38.6c-2.23,3.81-5.37,6.8-9.43,8.97-4.06,2.17-8.85,3.26-14.36,3.26h-18.53v-50.75h18.53c5.51,0,10.29,1.08,14.36,3.25,4.06,2.17,7.21,5.16,9.43,8.97,2.22,3.81,3.34,8.19,3.34,13.15s-1.11,9.33-3.34,13.15Z"/><rect class="cls-1" x="555.69" y="1073.06" width="4.26" height="58.42"/><path class="cls-1" d="M676.88,1081.08c-2.73-2.67-5.94-4.74-9.64-6.22-3.7-1.47-7.72-2.21-12.06-2.21s-8.36,.74-12.06,2.21c-3.7,1.47-6.93,3.56-9.68,6.26-2.75,2.7-4.88,5.84-6.38,9.43-1.5,3.59-2.25,7.5-2.25,11.73s.75,8.14,2.25,11.73c1.5,3.59,3.63,6.73,6.38,9.43,2.75,2.7,5.98,4.79,9.68,6.26,3.7,1.48,7.72,2.21,12.06,2.21s8.36-.74,12.06-2.21c3.7-1.47,6.91-3.55,9.64-6.22,2.73-2.67,4.85-5.8,6.38-9.39,1.53-3.59,2.29-7.52,2.29-11.81s-.77-8.22-2.29-11.81c-1.53-3.59-3.66-6.72-6.38-9.39Zm2.38,31.38c-1.31,3.12-3.13,5.84-5.47,8.18s-5.09,4.15-8.26,5.43c-3.17,1.28-6.62,1.92-10.35,1.92s-7.18-.64-10.35-1.92c-3.17-1.28-5.94-3.09-8.3-5.43-2.37-2.34-4.2-5.06-5.51-8.18-1.31-3.12-1.96-6.51-1.96-10.18s.65-7.14,1.96-10.22c1.31-3.09,3.14-5.8,5.51-8.14,2.36-2.34,5.13-4.14,8.3-5.42,3.17-1.28,6.62-1.92,10.35-1.92s7.18,.64,10.35,1.92c3.17,1.28,5.93,3.09,8.26,5.42s4.16,5.05,5.47,8.14,1.96,6.5,1.96,10.22-.65,7.07-1.96,10.18Z"/></g></g></svg>