<svg width="325" height="76" viewBox="0 0 325 76" fill="none" xmlns="http://www.w3.org/2000/svg">
<g clip-path="url(#clip0_248_279)" filter="url(#filter0_d_248_279)">
<path d="M321 30.7786V25.2036H314.077V16.5367L313.844 16.6085L307.341 18.598L307.213 18.637V25.2039H296.95V21.5456C296.95 19.8421 297.331 18.5386 298.081 17.6692C298.827 16.8103 299.893 16.3736 301.253 16.3736C302.231 16.3736 303.243 16.6039 304.262 17.058L304.517 17.1721V11.301L304.397 11.2568C303.447 10.9152 302.154 10.7432 300.552 10.7432C298.532 10.7432 296.698 11.1826 295.098 12.0535C293.497 12.9256 292.237 14.1706 291.355 15.7535C290.476 17.3346 290.03 19.1608 290.03 21.1816V25.2036H285.209V30.7786H290.03V54.2647H296.95V30.7786H307.213V45.7036C307.213 51.8504 310.113 54.9654 315.831 54.9654C316.77 54.9654 317.759 54.8553 318.769 54.6397C319.797 54.4183 320.497 54.1972 320.909 53.9611L321 53.9072V48.2807L320.719 48.4669C320.343 48.7171 319.875 48.9216 319.327 49.0737C318.776 49.2286 318.316 49.3062 317.96 49.3062C316.621 49.3062 315.63 48.9452 315.015 48.2329C314.393 47.5141 314.077 46.2571 314.077 44.4988V30.7786H321ZM269.755 49.3071C267.243 49.3071 265.263 48.4742 263.867 46.8336C262.463 45.1848 261.752 42.834 261.752 39.8472C261.752 36.7656 262.463 34.3538 263.868 32.6758C265.264 31.0089 267.226 30.1628 269.699 30.1628C272.098 30.1628 274.008 30.9708 275.377 32.5657C276.752 34.1689 277.45 36.5614 277.45 39.6788C277.45 42.8346 276.793 45.2587 275.499 46.8802C274.214 48.4895 272.282 49.3071 269.755 49.3071ZM270.063 24.5035C265.271 24.5035 261.464 25.9077 258.751 28.6771C256.038 31.4468 254.663 35.2796 254.663 40.0701C254.663 44.6202 256.006 48.2801 258.653 50.9464C261.301 53.6137 264.904 54.9648 269.362 54.9648C274.007 54.9648 277.737 53.541 280.45 50.7333C283.162 47.9287 284.537 44.132 284.537 39.4534C284.537 34.8322 283.247 31.145 280.703 28.4965C278.157 25.8467 274.577 24.5035 270.063 24.5035ZM243.506 24.5035C240.246 24.5035 237.55 25.3373 235.49 26.9813C233.418 28.6351 232.367 30.804 232.367 33.4286C232.367 34.7929 232.593 36.0048 233.04 37.0327C233.489 38.064 234.184 38.972 235.108 39.734C236.025 40.4899 237.439 41.2817 239.314 42.0873C240.891 42.7358 242.066 43.2844 242.813 43.7168C243.542 44.1406 244.06 44.5665 244.353 44.9814C244.637 45.3875 244.781 45.9431 244.781 46.6288C244.781 48.5812 243.319 49.5312 240.311 49.5312C239.195 49.5312 237.922 49.2982 236.527 48.8388C235.143 48.3864 233.836 47.7239 232.653 46.8744L232.366 46.6683V53.331L232.471 53.38C233.451 53.832 234.685 54.2132 236.14 54.5131C237.592 54.8133 238.912 54.966 240.058 54.966C243.595 54.966 246.444 54.1283 248.522 52.4745C250.614 50.8094 251.674 48.5892 251.674 45.8738C251.674 43.9149 251.104 42.2351 249.979 40.8803C248.862 39.5365 246.923 38.3029 244.218 37.2124C242.064 36.3477 240.684 35.6298 240.114 35.0787C239.565 34.5464 239.286 33.7936 239.286 32.8402C239.286 31.995 239.63 31.318 240.337 30.7697C241.048 30.2186 242.039 29.9383 243.282 29.9383C244.435 29.9383 245.614 30.1205 246.788 30.4774C247.96 30.8344 248.99 31.3124 249.849 31.8972L250.132 32.0904V25.7703L250.023 25.7237C249.23 25.3836 248.185 25.0926 246.915 24.8565C245.65 24.6219 244.503 24.5035 243.506 24.5035ZM214.326 49.3071C211.815 49.3071 209.834 48.4742 208.438 46.8336C207.034 45.1848 206.324 42.8346 206.324 39.8472C206.324 36.7656 207.035 34.3538 208.44 32.6758C209.835 31.0089 211.796 30.1628 214.27 30.1628C216.669 30.1628 218.579 30.9708 219.948 32.5657C221.323 34.1689 222.021 36.5614 222.021 39.6788C222.021 42.8346 221.364 45.2587 220.07 46.8802C218.785 48.4895 216.853 49.3071 214.326 49.3071ZM214.634 24.5035C209.841 24.5035 206.035 25.9077 203.322 28.6771C200.61 31.4468 199.234 35.2796 199.234 40.0701C199.234 44.622 200.577 48.2801 203.225 50.9464C205.873 53.6137 209.476 54.9648 213.933 54.9648C218.578 54.9648 222.309 53.541 225.022 50.7333C227.734 47.9287 229.108 44.132 229.108 39.4534C229.108 34.8322 227.819 31.145 225.274 28.4965C222.728 25.8467 219.148 24.5035 214.634 24.5035ZM188.73 30.2364V25.2036H181.894V54.2641H188.73V39.3985C188.73 36.8708 189.303 34.7942 190.434 33.2256C191.55 31.6758 193.038 30.8905 194.855 30.8905C195.47 30.8905 196.162 30.992 196.91 31.1929C197.651 31.3925 198.188 31.6093 198.504 31.8374L198.792 32.0456V25.154L198.681 25.1064C198.044 24.836 197.144 24.6995 196.004 24.6995C194.286 24.6995 192.749 25.2515 191.432 26.3382C190.276 27.2935 189.441 28.6032 188.802 30.2364H188.73ZM169.652 24.5035C166.516 24.5035 163.719 25.176 161.339 26.5017C158.955 27.8304 157.111 29.7274 155.857 32.1395C154.608 34.5458 153.973 37.3566 153.973 40.4911C153.973 43.2369 154.588 45.7567 155.804 47.9774C157.019 50.2019 158.74 51.9421 160.919 53.1491C163.094 54.3546 165.608 54.9657 168.392 54.9657C171.641 54.9657 174.415 54.3162 176.638 53.0353L176.728 52.9838V46.7211L176.441 46.9308C175.434 47.6646 174.308 48.2504 173.097 48.6723C171.888 49.094 170.787 49.3071 169.821 49.3071C167.139 49.3071 164.985 48.4678 163.422 46.8131C161.856 45.1562 161.062 42.8297 161.062 39.9021C161.062 36.9561 161.89 34.5697 163.522 32.8089C165.15 31.0533 167.307 30.1628 169.934 30.1628C172.181 30.1628 174.37 30.9236 176.442 32.4262L176.728 32.6344V26.0356L176.636 25.9834C175.856 25.5471 174.793 25.1868 173.473 24.9135C172.159 24.6409 170.873 24.5035 169.652 24.5035ZM149.265 25.2039H142.43V54.2641H149.265V25.2039ZM145.917 12.8241C144.792 12.8241 143.811 13.2071 143.005 13.9661C142.195 14.7272 141.785 15.6855 141.785 16.8164C141.785 17.9295 142.19 18.8704 142.992 19.6112C143.789 20.35 144.773 20.7244 145.918 20.7244C147.062 20.7244 148.05 20.3499 148.856 19.6125C149.667 18.8704 150.079 17.9299 150.079 16.8164C150.079 15.725 149.678 14.7766 148.889 13.9967C148.101 13.2185 147.101 12.8241 145.917 12.8241ZM128.861 23.0598V54.2641H135.838V13.7137H126.182L113.909 43.8333L101.999 13.7137H91.9507V54.2638H98.5066V23.0568H98.7317L111.308 54.2641H116.256L128.636 23.0598H128.861Z" fill="#706D6E"/>
<path d="M36.158 32.321H4V0.163086H36.158V32.321Z" fill="#F1511B"/>
<path d="M71.6639 32.321H39.5066V0.163086H71.6639V32.321Z" fill="#80CC28"/>
<path d="M36.157 67.8398H4V35.6821H36.157V67.8398Z" fill="#00ADEF"/>
<path d="M71.6639 67.8398H39.5066V35.6821H71.6639V67.8398Z" fill="#FBBC09"/>
</g>
<defs>
<filter id="filter0_d_248_279" x="0" y="0.5" width="325" height="75" filterUnits="userSpaceOnUse" color-interpolation-filters="sRGB">
<feFlood flood-opacity="0" result="BackgroundImageFix"/>
<feColorMatrix in="SourceAlpha" type="matrix" values="0 0 0 0 0 0 0 0 0 0 0 0 0 0 0 0 0 0 127 0" result="hardAlpha"/>
<feOffset dy="4"/>
<feGaussianBlur stdDeviation="2"/>
<feComposite in2="hardAlpha" operator="out"/>
<feColorMatrix type="matrix" values="0 0 0 0 0 0 0 0 0 0 0 0 0 0 0 0 0 0 0.25 0"/>
<feBlend mode="normal" in2="BackgroundImageFix" result="effect1_dropShadow_248_279"/>
<feBlend mode="normal" in="SourceGraphic" in2="effect1_dropShadow_248_279" result="shape"/>
</filter>
<clipPath id="clip0_248_279">
<rect width="317" height="67" fill="white" transform="translate(4 0.5)"/>
</clipPath>
</defs>
</svg>
