<svg width="182" height="116" viewBox="0 0 182 116" fill="none" xmlns="http://www.w3.org/2000/svg">
<g clip-path="url(#clip0_249_289)">
<path d="M1.8208 58.0231C1.8208 26.5572 41.9813 0.957788 91.326 0.957788C140.671 0.957788 180.831 26.5572 180.831 58.0231C180.831 89.489 140.694 115.088 91.326 115.088C41.9813 115.065 1.8208 89.4658 1.8208 58.0231ZM27.4763 16.9574C10.3572 27.9021 0.918579 42.4872 0.918579 58.0231C0.918579 73.5358 10.3572 88.1209 27.4763 99.0656C44.5492 109.964 67.2205 115.993 91.326 115.993C115.432 115.993 138.103 109.987 155.176 99.0656C172.295 88.1209 181.734 73.5358 181.734 58.0231C181.734 42.4872 172.295 27.9253 155.176 16.9574C138.126 6.03593 115.432 0.0302734 91.326 0.0302734C67.1973 0.0302734 44.5261 6.03593 27.4763 16.9574Z" fill="#0054A3"/>
<path d="M174.261 28.9226C172.156 28.9226 170.467 27.2299 170.467 25.1198C170.467 23.0329 172.156 21.317 174.261 21.317C176.343 21.317 178.055 23.0097 178.055 25.1198C178.055 27.2299 176.366 28.9226 174.261 28.9226ZM174.261 20.7373C171.832 20.7373 169.866 22.7083 169.866 25.143C169.866 27.5777 171.832 29.5487 174.261 29.5487C176.69 29.5487 178.657 27.5777 178.657 25.143C178.68 22.7083 176.69 20.7373 174.261 20.7373Z" fill="#0054A3"/>
<path d="M173.59 25.6995H174.053L175.094 27.6009H176.366L175.094 25.4676C175.788 25.4444 176.274 25.0039 176.274 24.2387C176.274 23.7749 176.158 23.3807 175.765 23.1257C175.395 22.8938 174.978 22.8242 174.539 22.8242H172.503V27.5777H173.59V25.6995ZM173.59 23.6822H174.238C174.446 23.6822 174.77 23.659 174.955 23.7749L175.21 24.1923C175.21 24.3778 175.14 24.5633 174.955 24.6792C174.77 24.772 174.516 24.772 174.284 24.772H173.613V23.6822H173.59Z" fill="#0054A3"/>
<path d="M91.4186 81.2806C103.356 81.2806 106.826 72.4228 125.518 72.4228C139.56 72.4228 146.917 84.1791 161.121 80.3994C162.694 79.982 164.499 78.7995 165.679 77.5937C168.871 74.301 172.92 67.5534 172.92 57.884C172.92 26.2094 129.451 8.42432 91.4186 8.42432C53.4095 8.42432 9.91772 26.2094 9.91772 57.884C9.91772 67.5534 13.9662 74.301 17.1586 77.5937C18.3385 78.7995 20.1198 79.982 21.716 80.3994C35.9203 84.1791 43.2769 72.4228 57.3423 72.4228C76.0345 72.4228 79.4815 81.2806 91.4417 81.2806H91.4186Z" fill="#0054A3"/>
<path d="M91.4417 99.2047C102.245 99.2047 107.797 90.2078 123.598 90.2078C135.234 90.2078 137.848 94.3584 143.609 95.1468C148.745 95.1468 157.697 87.3557 161.399 83.5993C162 82.9964 161.006 82.95 160.288 83.0891C159.617 83.2051 158.067 83.4601 154.528 83.4833C145.806 83.5529 136.044 74.9038 126.374 74.9038C105.345 74.9038 105.021 83.6688 91.5111 83.6688H91.3723C77.839 83.6688 77.5382 74.9038 56.5095 74.9038C46.8395 74.9038 37.0769 83.5529 28.3554 83.4833C24.8159 83.4601 23.266 83.2051 22.5951 83.0891C21.8779 82.95 20.8832 82.9964 21.4847 83.5993C25.1861 87.3557 34.1389 95.1468 39.2747 95.1468C45.035 94.3584 47.6492 90.2078 59.3087 90.2078C75.0629 90.2078 80.6382 99.2047 91.4417 99.2047Z" fill="#00ADEE"/>
<path d="M97.202 37.5019C96.161 37.2468 93.6394 36.5975 93.1073 36.4584C92.1357 36.2034 91.2334 35.8787 91.2334 35.044C91.2334 33.7918 92.3901 33.3512 93.8476 33.3512C95.3976 33.3512 96.5774 33.9078 96.9938 34.8816C97.202 35.3454 97.5721 35.4382 98.1042 35.4382H100.256C100.603 35.4382 100.996 35.1367 100.996 34.673C100.996 32.1919 98.0348 29.9658 93.8476 29.9658C89.5215 29.9658 86.6529 32.0295 86.6529 35.3454C86.6529 37.8729 88.6424 39.3801 91.0946 40.0062C92.2051 40.3076 94.1021 40.7714 95.0505 41.0032C96.0453 41.2583 96.9475 41.5829 96.9475 42.4409C96.9475 43.7858 95.5132 44.2495 93.9632 44.2495C92.5058 44.2495 91.0252 43.5771 90.6088 42.5336C90.3544 41.9308 89.9379 41.838 89.2902 41.838H87.1156C86.7455 41.838 86.3059 42.1626 86.3059 42.6496V42.9278C86.3059 45.3394 89.5215 47.8668 93.9632 47.8668C97.1095 47.8668 101.505 46.5451 101.505 42.3249C101.505 39.8902 99.8855 38.1743 97.202 37.5019Z" fill="white"/>
<path d="M116.079 24.1689H114.113C113.373 24.1689 112.771 24.7718 112.771 25.5138V46.2438C112.771 46.9858 113.373 47.5887 114.113 47.5887H116.079C116.82 47.5887 117.421 46.9858 117.421 46.2438V25.5138C117.398 24.7718 116.82 24.1689 116.079 24.1689Z" fill="white"/>
<path d="M73.1659 36.9456C73.351 34.9746 75.0629 33.537 77.0987 33.537C79.1113 33.537 80.8695 34.9746 81.0546 36.9456H73.1659ZM77.0987 29.9893C71.6159 29.9893 68.516 34.3022 68.516 38.8238C68.516 43.6701 71.8241 47.9135 77.1218 47.9135C80.7539 47.9135 84.3165 45.9889 85.0105 42.8353C85.103 42.418 84.8023 41.8614 84.2239 41.8614H81.6329C81.1471 41.8614 80.777 42.0933 80.5456 42.4179C79.8054 43.5078 78.7181 44.0875 77.1218 44.0875C74.8547 44.0875 73.2585 42.2788 73.1428 40.3079H84.1777C85.1956 40.3079 85.6351 39.7513 85.6351 38.8238C85.6351 34.395 83.021 29.9893 77.0987 29.9893Z" fill="white"/>
<path d="M123.436 36.9456C123.598 34.9746 125.333 33.537 127.346 33.537C129.381 33.537 131.116 34.9746 131.301 36.9456H123.436ZM127.346 29.9893C121.863 29.9893 118.786 34.3022 118.786 38.8238C118.786 43.6701 122.094 47.9135 127.392 47.9135C131.024 47.9135 134.61 45.9889 135.281 42.8353C135.373 42.418 135.095 41.8614 134.494 41.8614H131.903C131.44 41.8614 131.047 42.0933 130.816 42.4179C130.075 43.5078 128.988 44.0875 127.369 44.0875C125.102 44.0875 123.528 42.2788 123.413 40.3079H134.448C135.466 40.3079 135.905 39.7513 135.905 38.8238C135.905 34.395 133.291 29.9893 127.346 29.9893Z" fill="white"/>
<path d="M99.6311 27.9021C100.186 27.9021 100.649 27.4616 100.649 26.9051V25.421C100.649 24.8645 100.186 24.424 99.6311 24.424H63.9123C63.1026 24.424 62.4317 25.0732 62.4317 25.8848L62.5705 39.9366C62.5705 39.9366 54.8669 26.0007 54.4505 25.2819C54.0803 24.6095 53.2707 23.9834 52.1371 23.9834H49.1991C48.3894 23.9834 47.7185 24.6558 47.7185 25.4674V46.0814C47.7185 46.893 48.3663 47.5654 49.1991 47.5654H51.0961C51.9057 47.5654 52.5766 46.893 52.5766 46.0814L52.461 31.6122C52.461 31.6122 60.234 45.6872 60.5578 46.2437C60.9974 46.9858 61.7608 47.5423 62.8712 47.5423H65.5779C66.3876 47.5423 67.0354 46.8698 67.0354 46.0582V27.8558H99.6311" fill="white"/>
<path d="M110.874 30.5688H107.867V25.4675C107.867 24.7486 107.288 24.1689 106.571 24.1689H104.628C103.911 24.1689 103.333 24.7486 103.333 25.4675V30.5688H102.361C101.852 30.5688 101.436 30.9862 101.436 31.4963V32.8876C101.436 33.3977 101.852 33.8151 102.361 33.8151H103.333V42.1163C103.333 44.9916 105.461 47.5655 108.862 47.5655H110.666C111.244 47.5655 111.684 47.1249 111.684 46.5452V45.038C111.684 44.4815 111.221 44.0178 110.666 44.0178H110.388C108.769 44.0178 107.844 42.9743 107.844 41.4671V33.7919H110.851C111.36 33.7919 111.8 33.3745 111.8 32.8644V31.4731C111.823 30.9862 111.406 30.5688 110.874 30.5688Z" fill="white"/>
<path d="M134.309 27.7862C134.934 27.7862 135.442 27.2761 135.442 26.6732V25.0037C135.442 24.3776 134.934 23.8211 134.309 23.8907C134.309 23.8907 121.123 25.1892 120.706 25.2356C120.22 25.2819 119.943 25.6993 119.943 26.0935V27.0906C119.943 27.4848 120.267 27.8326 120.683 27.8326H134.309" fill="white"/>
<path d="M81.9568 60.9216C81.9568 61.4085 81.9337 62.1737 81.9337 62.6607C81.9337 62.6607 81.8411 65.1649 78.718 65.1649C77.4225 65.1649 76.2427 64.7939 76.2427 63.2867C76.2427 61.8027 77.3763 61.3853 78.6255 61.1303C79.8516 60.8984 81.2859 60.8752 81.9568 60.2723V60.9216ZM85.959 63.3331V56.5854C85.959 53.0609 82.4657 52.4116 79.5509 52.4116C76.2659 52.4116 72.9114 53.5478 72.6801 57.3043H75.8263C76.289 57.3043 76.6591 56.8869 76.8673 56.4463C76.8673 56.4463 77.33 55.0782 79.3427 55.0782C80.7538 55.0782 81.9337 55.3333 81.9337 57.0724C81.9337 58.7187 79.6434 58.626 77.1912 58.997C74.7159 59.3448 72.2174 60.1332 72.2174 63.449C72.2174 66.4403 74.4151 67.8547 77.1912 67.8547C78.9725 67.8547 80.8464 67.3678 82.0956 66.0461C82.1187 66.533 82.1419 66.6258 82.1419 66.6258C82.2575 67.0895 82.7665 67.4605 83.2292 67.4605H86.4448C86.0746 66.8577 85.9821 65.0722 85.9821 65.0722C85.9821 64.5852 85.959 63.7969 85.959 63.3331Z" fill="white"/>
<path d="M121.655 52.4116C118.532 52.4116 117.444 54.6608 117.444 54.6608C117.144 55.0087 116.982 55.5188 116.958 55.5188C116.935 55.5188 116.935 55.1246 116.935 54.6608V53.687C116.935 53.2232 116.542 52.829 116.079 52.829H113.997C113.512 52.829 113.141 53.2232 113.141 53.687V66.5794C113.141 67.0663 113.535 67.4374 113.997 67.4374H116.288C116.773 67.4374 117.144 67.0432 117.144 66.5794V60.852C117.144 58.2781 118.161 56.1449 121.099 56.1449C121.585 56.1449 121.701 56.1681 121.701 56.1681C122.164 56.2376 122.557 55.8898 122.557 55.426V52.5507C122.279 52.458 121.932 52.4116 121.655 52.4116Z" fill="white"/>
<path d="M71.3383 50.1162H68.8167C68.3309 50.1162 67.8682 50.4872 67.7525 50.9742L65.5317 60.3189C65.416 60.7826 65.3234 61.1536 65.3003 61.1536C65.2772 61.1536 65.1846 60.7826 65.0458 60.3189L62.7324 50.9742C62.6168 50.5104 62.131 50.1394 61.6683 50.1394H57.7818C57.296 50.1394 56.8102 50.5104 56.6945 50.9742L54.358 60.1566C54.2423 60.6203 54.1266 60.9913 54.1035 60.9913C54.0803 60.9913 53.9878 60.6203 53.8721 60.1334L51.7438 50.9742C51.6281 50.5104 51.1655 50.1162 50.6797 50.1162H48.0655C47.6028 50.1162 47.3021 50.4872 47.4178 50.951L51.5587 66.6028C51.6744 67.0665 52.1834 67.4375 52.646 67.4375H55.4453C55.9311 67.4375 56.4169 67.0665 56.5094 66.6028L59.4706 54.4987C59.5862 54.035 59.7019 53.664 59.7019 53.664C59.7019 53.664 59.8176 54.035 59.9332 54.4987L62.9406 66.6028C63.0563 67.0665 63.5421 67.4375 64.0048 67.4375H66.6884C67.151 67.4375 67.66 67.0665 67.7756 66.6028L71.986 50.951C72.1017 50.4872 71.8241 50.1162 71.3383 50.1162Z" fill="white"/>
<path d="M95.5365 52.8061H93.4776V52.1105L93.4544 51.9481V50.3018C93.4544 49.8148 93.0612 49.4438 92.5985 49.4438H90.3082C89.8224 49.4438 89.4523 49.838 89.4523 50.3018V52.8061H87.8792C87.3933 52.8061 87.0232 53.2003 87.0232 53.664V54.6147C87.0232 55.0785 87.4165 55.4727 87.8792 55.4727H89.4523V63.2406C89.4523 67.1594 91.6037 67.5999 94.0559 67.5999C94.8425 67.5999 95.5365 67.5304 95.5365 67.5304C95.9992 67.484 96.3924 67.0666 96.3924 66.6029V65.1884C96.3924 64.7246 96.0223 64.3768 95.5596 64.4464C95.5596 64.4464 95.5596 64.4464 95.1201 64.4464C93.7783 64.4464 93.5932 63.5884 93.5932 63.5884C93.5007 63.1247 93.4313 62.3595 93.4313 61.8725V56.3538L93.4544 56.1915V55.4959H95.5134C95.976 55.4959 96.3693 55.1017 96.3693 54.6379V53.6872C96.3924 53.2003 95.9992 52.8061 95.5365 52.8061Z" fill="white"/>
<path d="M102.315 58.5564L100.904 58.5332C100.927 58.3013 101.158 55.4492 104.235 55.4492C106.201 55.4492 107.057 56.5159 107.427 58.5564H102.315ZM104.35 52.4116C99.9319 52.4116 96.9014 55.7507 96.9014 60.1332C96.9014 64.6548 99.7468 67.8315 104.35 67.8315C109.903 67.8315 110.921 63.5186 110.921 63.5186C111.198 63.1244 110.805 62.8925 110.319 62.8925H107.659C107.404 63.7969 106.109 64.7939 104.489 64.7939C102.245 64.7939 101.019 63.6345 100.904 61.0839H110.574C111.059 61.0839 111.522 60.6897 111.406 60.2259C111.429 60.2723 111.753 52.4116 104.35 52.4116Z" fill="white"/>
<path d="M126.467 62.6839C126.49 64.4229 127.924 65.1418 129.474 65.1418C130.608 65.1418 132.042 64.678 132.042 63.2867C132.042 62.081 130.422 61.6404 127.6 61.0375C125.333 60.5274 123.089 59.7158 123.089 57.142C123.089 53.4087 126.235 52.458 129.289 52.458C132.412 52.458 135.281 53.5247 135.581 57.1188H132.898C132.319 57.1188 131.926 56.6782 131.625 56.1913C131.625 56.1913 131.556 55.1246 129.196 55.1246C128.317 55.1246 127.022 55.3101 127.022 56.4695C127.022 57.9072 129.219 58.1158 131.463 58.6492C133.754 59.1825 135.998 60.0404 135.998 62.7302C135.998 66.5562 132.736 67.8084 129.497 67.8084C123.274 67.8084 122.858 63.5418 122.858 63.5418C122.696 62.8694 122.996 62.6839 123.575 62.6839H126.467Z" fill="white"/>
</g>
<defs>
<clipPath id="clip0_249_289">
<rect width="181" height="116" fill="white" transform="translate(0.76001)"/>
</clipPath>
</defs>
</svg>
