<svg width="393" height="393" viewBox="0 0 393 393" fill="none" xmlns="http://www.w3.org/2000/svg">
<g clip-path="url(#clip0_223_236)">
<path d="M355.798 196.547C355.798 284.526 284.477 355.846 196.498 355.846C108.519 355.846 37.2024 284.526 37.2024 196.547C37.2024 108.568 108.523 37.2512 196.502 37.2512V0C87.9749 0 0 87.9749 0 196.502C0 305.029 87.9749 393.004 196.502 393.004C305.029 393.004 393.004 305.029 393.004 196.502H355.801C355.801 196.502 355.801 196.532 355.801 196.551L355.798 196.547Z" fill="#1B1B1B"/>
<path d="M318.599 196.502H355.798C355.771 108.546 284.462 37.251 196.498 37.251V74.4046C263.932 74.4046 318.595 129.071 318.595 196.502H318.599Z" fill="#1B1B1B"/>
<path d="M281.397 196.547C281.397 243.433 243.388 281.442 196.502 281.442C149.616 281.442 111.607 243.433 111.607 196.547C111.607 149.661 149.616 111.652 196.502 111.652V74.4011C129.068 74.4011 74.4048 129.068 74.4048 196.498C74.4048 263.928 129.072 318.595 196.502 318.595C263.932 318.595 318.599 263.928 318.599 196.498L281.397 196.498C281.397 196.498 281.397 196.528 281.397 196.547Z" fill="#1B1B1B"/>
<path d="M244.194 196.502H281.397C281.37 149.639 243.372 111.652 196.502 111.652V148.806C222.843 148.806 244.198 170.161 244.198 196.502H244.194Z" fill="#1B1B1B"/>
<path d="M196.502 148.806C170.161 148.806 148.806 170.161 148.806 196.502C148.806 222.843 170.161 244.198 196.502 244.198C222.843 244.198 244.198 222.843 244.198 196.502H196.502V148.806Z" fill="#1B1B1B"/>
</g>
<defs>
<clipPath id="clip0_223_236">
<rect width="393" height="393" fill="white"/>
</clipPath>
</defs>
</svg>
