<svg width="120" height="124" viewBox="0 0 120 124" fill="none" xmlns="http://www.w3.org/2000/svg">
<g clip-path="url(#clip0_249_308)">
<path d="M59.9776 0.000488281C57.0699 0.619802 31.4793 3.96383 28.2936 5.55272C27.5594 7.01978 26.025 11.5969 25.5384 12.3212C23.4818 12.7628 15.1478 14.3449 14.6239 14.6478C14.3305 15.5277 12.4155 19.2842 11.9747 19.7241C10.2097 20.1641 1.98161 21.6866 0.954157 22.4209C0.367526 25.9405 -1.87218 61.1584 12.8224 84.1829C27.517 107.207 53.2178 122.533 59.9776 124H60.0306C66.7904 122.533 92.4381 107.207 107.133 84.1829C121.826 61.1567 119.644 25.9405 119.054 22.4209C118.025 21.6866 109.795 20.1641 108.033 19.7241C107.593 19.2842 105.679 15.5277 105.384 14.6478C104.862 14.3449 96.5297 12.7611 94.4697 12.3212C93.9831 11.5969 92.4504 7.01978 91.7146 5.55272C88.539 3.96891 62.926 0.631643 59.9776 0.000488281ZM59.9776 8.98982C62.497 9.52791 84.3906 12.4481 87.105 13.8018C87.7307 15.0556 89.0226 18.9462 89.4363 19.5655C91.1945 19.9412 98.3668 21.2631 98.8144 21.522C99.0653 22.2733 100.662 25.5353 101.04 25.9109C102.547 26.2866 109.592 27.5586 110.471 28.1847C110.974 31.1933 112.858 61.2781 100.298 80.9573C87.7379 100.638 65.8087 113.759 60.0306 115.011H59.9776C54.1994 113.759 32.2703 100.637 19.7103 80.9573C7.15194 61.2781 9.0356 31.1933 9.53746 28.1847C10.4174 27.5569 17.4612 26.2866 18.9685 25.9109C19.3466 25.5353 20.9429 22.2733 21.1938 21.522C21.6414 21.2631 28.7607 19.9412 30.5189 19.5655C30.9342 18.9462 32.2758 15.0556 32.9031 13.8018C35.6243 12.443 57.492 9.51776 59.9776 8.98982Z" fill="#007AC2"/>
<path d="M64.0043 18.6135C63.1788 18.6948 63.0557 19.2714 63.0506 19.5125C62.881 47.6793 62.9616 77.5607 62.7327 106.497C62.9192 107.413 64.3819 106.006 65.2229 105.546C75.9281 99.6723 109.318 67.3988 90.125 55.84C104.821 46.2491 102.202 37.096 95.6883 32.0975C82.2195 21.7571 66.8527 19.1897 65.0639 18.7193C64.6168 18.6017 64.2794 18.5865 64.0043 18.6135ZM72.9584 30.1939C73.167 30.0805 81.8003 33.2748 86.5222 36.4865C91.9358 40.1685 90.103 43.7071 86.946 45.8459C85.2319 47.0118 74.6242 54.6153 72.8525 55.0468C72.8135 53.5797 72.8058 37.0368 72.9584 30.1939ZM80.853 62.3969C82.0357 62.4332 83.1592 62.8106 83.979 63.666C84.7114 64.3648 87.94 67.8383 81.0649 77.7845C78.5047 82.2957 73.1365 87.9536 72.5346 88.5188C72.4617 88.5391 72.4316 88.427 72.3756 88.4659C72.4316 85.2323 72.3447 69.5786 72.5346 65.1994C72.9148 65.0015 77.3048 62.2879 80.853 62.3969Z" fill="#007AC2"/>
<path d="M27.5098 28.7557C26.6299 29.1314 19.1342 33.8947 18.3798 34.6459C18.1712 41.2858 19.9549 59.2001 26.5248 73.182C27.3556 74.9503 28.2575 76.6086 29.2341 78.1095C31.1076 81.338 31.2127 81.0825 33.3931 77.991C34.9038 75.952 37.0824 72.9282 37.6284 72.3055C38.3812 74.8115 43.2489 90.4432 50.0952 99.8903C53.13 104.082 57.7909 108.041 57.7722 106.41C57.5857 90.4483 57.1279 21.3561 57.6298 18.5404C55.6105 18.4931 48.9863 19.3543 47.6757 20.0329C47.5672 22.5592 48.5862 69.9349 47.9589 75.3226C43.3184 64.0396 41.7348 34.2652 42.6521 21.9805C40.1411 22.4814 34.017 24.9332 33.1388 25.8114C32.0096 28.067 33.5508 52.8057 35.1547 61.1088C34.6071 61.9701 33.0286 64.3086 32.7777 64.6843C29.6004 58.9802 26.5638 41.345 27.5098 28.7557Z" fill="#007AC2"/>
</g>
<defs>
<clipPath id="clip0_249_308">
<rect width="119.04" height="124" fill="white" transform="translate(0.47998)"/>
</clipPath>
</defs>
</svg>
